<?xml version="1.0" standalone="no"?>
<!DOCTYPE svg PUBLIC "-//W3C//DTD SVG 20010904//EN"
 "http://www.w3.org/TR/2001/REC-SVG-20010904/DTD/svg10.dtd">
<svg version="1.0" xmlns="http://www.w3.org/2000/svg"
 width="500.000000pt" height="500.000000pt" viewBox="0 0 500.000000 500.000000"
 preserveAspectRatio="xMidYMid meet">
<metadata>
Created by potrace 1.14, written by Peter Selinger 2001-2017
</metadata>
<g transform="translate(0.000000,500.000000) scale(0.100000,-0.100000)"
fill="#000000" stroke="none">
<path d="M1029 2475 l-846 -2405 548 0 548 0 26 88 c15 48 93 303 173 567
l147 480 875 0 875 0 146 -480 c81 -264 159 -519 174 -567 l26 -88 544 0 c313
0 545 4 545 9 0 7 -1661 4722 -1685 4784 -7 16 -46 17 -629 17 l-622 0 -845
-2405z m1675 963 c69 -222 192 -621 275 -887 83 -267 149 -486 147 -488 -1 -2
-282 -2 -623 -1 l-620 3 74 240 c175 568 368 1211 448 1490 47 165 88 307 91
315 3 8 23 -49 45 -127 21 -78 95 -323 163 -545z"/>
</g>
</svg>
